<?xml version="1.0" standalone="no"?>
<!DOCTYPE svg PUBLIC "-//W3C//DTD SVG 20010904//EN"
 "http://www.w3.org/TR/2001/REC-SVG-20010904/DTD/svg10.dtd">
<svg version="1.0" xmlns="http://www.w3.org/2000/svg"
 width="474.000000pt" height="474.000000pt" viewBox="0 0 474.000000 474.000000"
 preserveAspectRatio="xMidYMid meet">
<metadata>
Created by potrace 1.16, written by Peter Selinger 2001-2019
</metadata>
<g transform="translate(0.000000,474.000000) scale(0.100000,-0.100000)"
fill="#000000" stroke="none">
<path d="M1055 1523 c-74 -31 -123 -72 -162 -136 -36 -59 -38 -66 -38 -152 0
-106 19 -153 87 -224 105 -108 278 -125 404 -38 77 53 78 60 14 117 -61 55
-78 60 -105 30 -31 -34 -83 -43 -137 -23 -27 9 -48 20 -48 25 0 4 -8 15 -19
25 -29 29 -35 86 -13 136 25 56 44 74 94 88 34 9 49 8 85 -6 49 -19 41 -22
118 47 16 16 33 28 38 28 4 0 7 6 7 14 0 13 -54 59 -72 62 -5 1 -9 2 -10 4 -9
7 -54 13 -123 16 -59 3 -90 0 -120 -13z"/>
<path d="M1460 1530 c-12 -8 -14 -56 -11 -297 1 -158 5 -291 7 -295 3 -5 108
-8 234 -8 l230 0 5 23 c4 13 5 46 3 73 l-3 49 -157 3 -158 3 0 39 0 40 150 0
151 0 -3 73 -3 72 -147 3 -147 3 1 28 c1 37 14 41 136 41 l92 0 0 70 c0 48 -4
72 -12 75 -28 9 -355 13 -368 5z"/>
<path d="M2655 1532 c-33 -2 -62 -8 -66 -13 -8 -14 -12 -550 -4 -572 6 -14 20
-17 80 -17 41 0 76 4 79 8 2 4 6 138 8 296 3 331 12 304 -97 298z"/>
<path d="M2962 1508 c-104 -57 -139 -97 -166 -187 -21 -73 -20 -108 6 -188 18
-55 33 -79 78 -123 67 -67 125 -90 226 -90 59 0 81 5 130 30 63 32 81 45 103
72 12 16 8 22 -30 57 -72 65 -80 67 -129 35 -76 -50 -159 -29 -201 51 -41 76
-2 179 77 205 28 10 45 8 89 -6 l55 -17 49 44 c65 58 68 69 34 96 -43 35 -109
53 -189 53 -63 0 -80 -4 -132 -32z"/>
<path d="M1990 1527 c-3 -3 -4 -105 -2 -226 l3 -221 74 0 74 0 3 -72 3 -73 93
1 c78 2 101 6 147 28 79 39 138 110 160 190 22 81 16 136 -24 219 -25 52 -39
67 -83 94 -29 18 -66 37 -81 43 -30 11 -358 26 -367 17z m322 -174 c70 -41 87
-133 38 -202 -36 -50 -62 -61 -138 -61 l-57 0 0 146 0 146 64 -6 c35 -3 77
-13 93 -23z"/>
<path d="M3556 1521 c-3 -5 -20 -48 -37 -96 -17 -48 -35 -99 -41 -114 -6 -14
-12 -29 -12 -33 -1 -3 -4 -10 -8 -14 -5 -4 -8 -13 -8 -21 0 -7 -9 -32 -20 -56
-10 -23 -26 -62 -35 -87 -9 -25 -24 -67 -34 -95 -10 -27 -16 -56 -14 -62 5
-14 127 -19 157 -7 8 3 20 21 26 39 l11 33 75 4 c94 4 104 0 118 -43 l11 -34
75 -3 c41 -1 81 2 88 6 13 9 -7 74 -63 207 -7 17 -22 59 -34 95 -12 36 -26 74
-31 85 -5 11 -20 53 -35 93 -40 116 -36 112 -115 112 -38 0 -71 -4 -74 -9z"/>
</g>
</svg>
