<?xml version="1.0" standalone="no"?>
<!DOCTYPE svg PUBLIC "-//W3C//DTD SVG 20010904//EN"
 "http://www.w3.org/TR/2001/REC-SVG-20010904/DTD/svg10.dtd">
<svg version="1.0" xmlns="http://www.w3.org/2000/svg"
 width="500.000000pt" height="500.000000pt" viewBox="0 0 500.000000 500.000000"
 preserveAspectRatio="xMidYMid meet">
<metadata>
Created by potrace 1.16, written by Peter Selinger 2001-2019
</metadata>
<g transform="translate(0.000000,500.000000) scale(0.100000,-0.100000)"
fill="#000000" stroke="none">
<path d="M3410 4169 c-57 -29 -81 -36 -215 -65 -103 -22 -162 -47 -203 -87
-41 -39 -82 -116 -82 -154 l0 -28 28 31 c15 17 45 42 67 57 41 26 194 82 202
73 3 -2 -8 -24 -25 -48 -46 -68 -62 -104 -62 -143 l0 -37 35 42 c19 23 79 77
133 119 108 86 146 130 173 202 31 80 30 80 -51 38z"/>
<path d="M3632 4055 c-19 -8 -56 -35 -83 -59 -27 -25 -65 -50 -84 -56 -49 -16
-33 -33 26 -28 27 3 50 3 53 1 2 -2 -5 -26 -15 -54 -24 -62 -5 -68 38 -11 26
33 113 200 113 216 0 9 -11 7 -48 -9z"/>
<path d="M2530 4049 c-287 -24 -607 -170 -806 -366 -146 -144 -242 -304 -285
-473 -27 -102 -32 -320 -10 -410 48 -200 138 -379 272 -540 63 -76 263 -276
355 -355 211 -182 372 -361 429 -479 25 -51 30 -56 41 -42 18 25 27 125 19
209 -10 103 -43 203 -132 397 -14 30 -33 73 -43 95 -9 22 -24 56 -33 75 -22
50 -73 206 -88 270 -26 108 -15 298 21 385 29 71 46 105 73 144 29 42 29 43 6
36 -71 -23 -218 -168 -262 -257 -53 -109 -59 -262 -16 -392 29 -87 103 -235
172 -344 104 -166 93 -163 -90 21 -167 168 -245 260 -325 382 -105 161 -167
313 -194 474 -21 133 -18 192 22 376 13 61 93 212 154 293 90 119 248 246 392
315 153 74 182 84 348 128 68 18 236 39 313 39 42 0 77 4 77 9 0 20 -234 26
-410 10z"/>
<path d="M3341 3885 c-15 -55 -65 -111 -117 -131 -41 -15 -56 -16 -128 -6 -44
6 -103 17 -131 24 -27 7 -88 13 -135 13 -73 0 -93 -4 -140 -27 -60 -30 -130
-89 -130 -109 0 -8 5 -7 18 4 25 23 98 52 169 67 73 15 139 2 251 -47 66 -29
148 -53 185 -53 65 0 40 -16 -46 -29 -63 -9 -103 -10 -161 -2 -43 6 -86 11
-97 11 -37 0 -10 -18 44 -30 275 -59 364 -55 450 20 l35 30 12 -30 c19 -46 65
-85 134 -114 51 -22 64 -33 74 -60 7 -18 12 -40 12 -49 0 -32 20 -27 35 9 24
58 19 80 -22 111 -21 15 -56 46 -78 68 -36 36 -42 49 -57 129 -19 97 -57 169
-113 212 -43 32 -52 30 -64 -11z"/>
<path d="M3530 3434 c0 -17 5 -56 10 -85 6 -30 15 -144 19 -254 9 -206 12
-217 64 -325 24 -50 107 -191 154 -260 55 -81 60 -116 34 -246 -20 -104 -31
-113 -158 -134 -116 -19 -134 -3 -143 118 l-5 74 -115 69 c-147 89 -230 173
-270 276 -8 18 -4 25 22 41 l30 19 -57 8 c-223 27 -395 188 -395 368 0 53 34
142 67 179 15 16 15 18 0 18 -21 0 -103 -94 -116 -133 -7 -20 -45 -64 -99
-113 -212 -197 -252 -397 -151 -773 37 -139 44 -135 42 22 -4 288 67 439 219
466 l61 11 49 -46 c47 -44 156 -104 190 -104 32 0 48 -12 69 -56 38 -75 129
-157 233 -209 32 -17 78 -51 101 -77 40 -44 44 -54 55 -134 11 -79 15 -87 42
-104 50 -30 92 -33 171 -11 39 11 91 22 114 26 46 7 93 38 93 61 0 8 4 22 9
32 15 29 71 226 71 249 0 38 -19 74 -102 192 -141 202 -176 286 -198 476 -14
125 -64 312 -99 372 -9 15 -10 13 -11 -13z"/>
<path d="M1170 2982 c0 -10 -6 -26 -13 -37 -29 -42 -57 -183 -57 -285 0 -54 4
-109 9 -122 5 -13 14 -41 21 -63 15 -46 81 -153 131 -209 33 -39 167 -153 269
-231 28 -22 73 -56 98 -75 25 -19 74 -62 109 -94 35 -33 63 -54 63 -48 0 39
-129 200 -301 377 -59 61 -118 124 -130 140 -13 17 -26 32 -29 35 -21 20 -85
128 -110 189 -44 103 -60 195 -57 329 2 61 2 112 0 112 -2 0 -3 -8 -3 -18z"/>
<path d="M1070 2236 c0 -29 24 -131 40 -171 4 -11 14 -36 21 -55 17 -46 72
-133 123 -193 52 -62 158 -142 266 -200 83 -45 326 -151 405 -177 22 -7 71
-28 109 -46 38 -19 73 -34 77 -34 14 0 200 -110 267 -157 118 -84 269 -256
316 -360 10 -24 22 -43 26 -43 9 0 35 108 50 210 6 41 16 94 21 117 5 23 9
115 9 205 0 240 -33 363 -172 641 -27 54 -52 97 -54 94 -3 -2 4 -31 15 -63 42
-125 76 -262 91 -369 12 -90 12 -270 0 -360 -9 -64 -27 -125 -36 -125 -2 0
-30 24 -62 54 -112 105 -210 171 -383 257 -65 33 -121 59 -124 59 -3 0 -28 11
-57 25 -28 14 -55 25 -60 25 -4 0 -32 11 -62 25 -30 14 -57 25 -60 25 -3 0
-36 14 -73 31 -38 17 -99 45 -138 62 -154 69 -290 164 -384 265 -45 50 -130
179 -138 210 -3 14 -12 37 -19 51 l-14 26 0 -29z"/>
</g>
</svg>
